<svg xmlns="http://www.w3.org/2000/svg" viewBox="0 0 800 1050"><defs><linearGradient id="bg" x2="1" y2="1"><stop stop-color="#e7ddd0"/><stop offset="1" stop-color="#cdb9a9"/></linearGradient><linearGradient id="cloth" x2=".8" y2="1"><stop stop-color="#b47d72"/><stop offset=".5" stop-color="#8e5e60"/><stop offset="1" stop-color="#d1a899"/></linearGradient><pattern id="dots" width="44" height="44" patternUnits="userSpaceOnUse"><circle cx="8" cy="8" r="1.3" fill="#f3e8d9" opacity=".65"/><path d="M22 18l3 4-3 4-3-4z" fill="#ead6c7" opacity=".6"/></pattern></defs><rect width="800" height="1050" fill="url(#bg)"/><path d="M118 865c95-198 124-472 233-634 38-56 91-87 141-79 74 12 121 112 173 224 37 79 61 176 92 489z" fill="url(#cloth)"/><path d="M118 865c95-198 124-472 233-634 38-56 91-87 141-79 74 12 121 112 173 224 37 79 61 176 92 489z" fill="url(#dots)"/><path d="M358 250c46 32 96 46 155 47M286 420c104 47 205 60 311 52M229 615c146 47 278 56 411 43M185 781c161 31 301 40 458 29" fill="none" stroke="#f1daca" stroke-width="8" opacity=".62"/><rect x="0" y="900" width="800" height="150" fill="#f8f5ef" opacity=".84"/><text x="400" y="965" text-anchor="middle" font-family="Arial,sans-serif" font-size="19" letter-spacing="5" fill="#8d7770">YOUR SUIT PHOTO HERE</text><text x="400" y="1000" text-anchor="middle" font-family="Arial,sans-serif" font-size="13" letter-spacing="2" fill="#94877c">REPLACE THIS PLACEHOLDER</text></svg>
